<svg xmlns="http://www.w3.org/2000/svg" xmlns:xlink="http://www.w3.org/1999/xlink"><defs><filter id="a" x="-4" y="0" width="86" height="88" filterUnits="userSpaceOnUse" color-interpolation-filters="sRGB"><feFlood flood-opacity="0" result="BackgroundImageFix"/><feColorMatrix in="SourceAlpha" values="0 0 0 0 0 0 0 0 0 0 0 0 0 0 0 0 0 0 127 0" result="hardAlpha"/><feOffset dy="4"/><feGaussianBlur stdDeviation="2"/><feComposite in2="hardAlpha" operator="out"/><feColorMatrix values="0 0 0 0 0 0 0 0 0 0 0 0 0 0 0 0 0 0 0.25 0"/><feBlend in2="BackgroundImageFix" result="effect1_dropShadow_40955_440"/><feBlend in="SourceGraphic" in2="effect1_dropShadow_40955_440" result="shape"/></filter><clipPath id="a"><path fill="#fff" d="M0 0h128v24H0z"/></clipPath><clipPath id="a"><path fill="#fff" transform="translate(0 .32)" d="M0 0h20v20.069H0z"/></clipPath><clipPath id="a"><path fill="#fff" transform="translate(0 20)" d="M0 0h134v56H0z"/></clipPath><clipPath id="a"><path fill="#fff" transform="translate(0 44)" d="M0 0h268v112H0z"/></clipPath><clipPath id="a"><path fill="#fff" transform="translate(0 11)" d="M0 0h67v28H0z"/></clipPath><clipPath id="a"><path fill="#fff" transform="translate(15)" d="M0 0h70v97H0z"/></clipPath><clipPath id="a"><path fill="#fff" transform="translate(30)" d="M0 0h140v194H0z"/></clipPath><clipPath id="a"><path fill="#fff" transform="translate(7)" d="M0 0h36v50H0z"/></clipPath></defs><symbol id="benefit-icon"><g fill="none"><path d="M25.344.767c-.1-.45-.48-.767-.912-.767h-.005C19.489.033 7.482.916 2.634 8.38.116 12.258-.101 17.293 1.99 23.345c.016.047.048.079.07.122-.747 1.973-1.037 3.286-1.044 3.323-.11.54.214 1.072.72 1.188a.88.88 0 0 0 .197.022c.433 0 .822-.321.916-.79.02-.102 2.409-10.373 10.854-16.378.431-.306.547-.927.26-1.387-.288-.46-.87-.585-1.3-.277-4.79 3.405-7.739 8.008-9.473 11.656-1.242-4.578-.916-8.377.986-11.305 3.743-5.764 12.622-7.154 17.982-7.448C21.005 3.872 19.745 7.174 19.745 13c0 3.12-.83 5.522-2.465 7.14-2.62 2.591-6.88 2.834-9.993 2.584-.518-.045-.967.371-1.006.922-.04.55.347 1.03.863 1.072.623.051 1.29.082 1.981.082 3.17 0 6.87-.663 9.43-3.194 2.034-2.011 3.065-4.906 3.065-8.605 0-9.099 3.216-11.096 3.232-11.105.39-.209.594-.677.492-1.129Z" fill="#fff"/></g></symbol><symbol id="close_cross_icon"><g fill="none" stroke="currentColor" stroke-width="2" stroke-linecap="round" stroke-linejoin="round"><path d="M18 6 6 18M6 6l12 12"/></g></symbol><symbol id="control-mark-cheackbox"><g fill="none"><path d="M7 11.718 1.3 5.27.25 6.457 7 14.094 18.25 1.366 17.2.094 7 11.718Z" fill="#68B738"/></g></symbol><symbol id="convenience-icon"><g fill="none"><path d="M21.276 18.473c-1.706 0-3.088 1.479-3.088 3.301 0 1.824 1.383 3.302 3.088 3.302 1.706 0 3.088-1.478 3.088-3.302 0-1.823-1.383-3.3-3.088-3.3Zm0 5.013c-.884 0-1.6-.766-1.6-1.71 0-.947.716-1.713 1.6-1.713.884 0 1.602.766 1.602 1.712 0 .945-.718 1.711-1.602 1.711ZM12.107-.01c-1.76 0-3.187 1.525-3.187 3.407 0 1.882 1.426 3.407 3.187 3.407 1.76 0 3.187-1.524 3.187-3.407S13.867-.01 12.107-.01Zm0 5.476c-1.07 0-1.936-.926-1.936-2.07 0-1.142.866-2.069 1.935-2.069 1.07 0 1.936.927 1.936 2.07 0 1.143-.866 2.069-1.936 2.069ZM8.727 17.61c-1.294 0-2.341 1.12-2.341 2.503s1.047 2.503 2.34 2.503c1.295 0 2.342-1.12 2.342-2.503 0-1.382-1.047-2.503-2.341-2.503ZM8.5 19.5c-.459 0 1.158 1.104 1.158.613 0-.49-1.617.387-1.158.387.459 0 1.057-.877 1.057-.388 0 .49-.598-.612-1.057-.612ZM19 9.763s3.04-.839 6.178 1.494c.907.76 1.765 1.336 1.152 2.122-.343.34-.637.657-1.716-.524-1.054-.76-2.72-1.898-5.614-1.442-1.128.237-1.961.551-3.556 2.15-1.593 1.598-3.972 2.725-6.497 2.489-2.525-.236-3.849-1.258-5.246-2.542-.294-.42-.294-.865-.123-1.127.171-.262.833-.524 1.201-.132.368.394 2.109 1.966 3.825 2.07 1.716.105 3.433.21 5.737-1.965 2.306-2.174 3.458-2.331 4.66-2.593Z" fill="#fff"/><mask id="a" fill="#fff"><path d="M29.146 26.816V8.157c0-.578-.374-.65-.524-.655h-.506c-.493 0-.536.557-.538.739V8.3c.002 3.609.01 18.254-.002 18.54a2.681 2.681 0 0 1-.82 1.887c-.809.695-1.618.603-1.618.603s-20.177 0-20.655-.026c-.38-.066-1.042-.21-1.606-1.01-.564-.798-.453-1.847-.453-1.847V8.315c0-.839-.675-.812-.675-.812h-.307c-.536 0-.585.588-.588.776v18.537c0 1.337.453 2.398 1.548 3.337 1.094.939 2.375.856 2.375.856s19.723 0 20.581-.002c.859-.003 1.986-.417 2.916-1.556.93-1.138.872-2.635.872-2.635Z"/></mask><path d="M29.146 26.816V8.157c0-.578-.374-.65-.524-.655h-.506c-.493 0-.536.557-.538.739V8.3c.002 3.609.01 18.254-.002 18.54a2.681 2.681 0 0 1-.82 1.887c-.809.695-1.618.603-1.618.603s-20.177 0-20.655-.026c-.38-.066-1.042-.21-1.606-1.01-.564-.798-.453-1.847-.453-1.847V8.315c0-.839-.675-.812-.675-.812h-.307c-.536 0-.585.588-.588.776v18.537c0 1.337.453 2.398 1.548 3.337 1.094.939 2.375.856 2.375.856s19.723 0 20.581-.002c.859-.003 1.986-.417 2.916-1.556.93-1.138.872-2.635.872-2.635Z" fill="#fff"/><path d="M29.146 26.816h-20v.387l.015.387 19.985-.774Zm-.524-19.314.71-19.987-.355-.013h-.355v20Zm-1.044.739-20-.15v.15h20Zm0 .06h-20v.008l20-.008Zm-.002 18.54-19.985-.758v.013l19.986.745Zm-.82 1.887 13.039 15.165.431-.37.41-.396-13.88-14.399Zm-1.618.603 2.26-19.872-1.127-.128h-1.133v20Zm-20.655-.026-3.395 19.71 1.134.195 1.148.064 1.113-19.97Zm-1.606-1.01-16.344 11.528.004.006 16.34-11.533Zm-.453-1.847 19.89 2.098.11-1.046v-1.052h-20ZM1.749 7.503v20h.388l.388-.015-.776-19.985Zm-.895.776-19.998-.289-.002.145v.144h20Zm1.548 21.874L-10.624 45.33 2.403 30.153Zm2.375.856v-20h-.643l-.64.041 1.283 19.96Zm23.497-1.558 15.49 12.654.005-.008-15.495-12.646Zm20.872-2.635V8.157h-40v18.659h40Zm0-18.659c0-4.97-1.859-11.419-7.618-16.084-4.89-3.96-10.03-4.481-12.196-4.558l-1.42 39.974a19.462 19.462 0 0 1-11.56-4.332c-5.535-4.483-7.206-10.608-7.206-15h40ZM28.622-12.498h-.506v40h.506v-40Zm-.506 0a20.47 20.47 0 0 0-12.283 4.083A20.526 20.526 0 0 0 9.414-.38 21.134 21.134 0 0 0 7.579 8.09l39.999.299c-.006.733-.014 3.914-1.667 7.598a19.474 19.474 0 0 1-6.096 7.61 19.53 19.53 0 0 1-11.699 3.904v-40ZM7.578 8.241V8.292h40V8.24h-40Zm0 .05V8.302h40V8.291h-40Zm0 .018.004 10.511a8367.03 8367.03 0 0 1-.002 7.252c-.002.788-.006.45.01.011L47.563 27.6c.02-.51.018-1.37.018-1.45l.002-1.808v-5.528c0-4.15-.003-8.719-.004-10.52l-40 .016Zm.012 17.787c.05-1.35.384-7.042 5.285-11.767l27.761 28.798c6.396-6.166 6.852-13.536 6.927-15.54L7.59 26.096Zm6.126-12.533a17.513 17.513 0 0 1 7.807-3.843 17.962 17.962 0 0 1 4.628-.362 19.227 19.227 0 0 1 1.172.093l.037.004.019.002c.01.001.019.002-2.241 19.874-2.26 19.872-2.25 19.873-2.241 19.874l.018.003c.013 0 .025.002.038.004a14.8 14.8 0 0 0 .553.053 20.798 20.798 0 0 0 2.275.064 22.044 22.044 0 0 0 3.983-.468 22.487 22.487 0 0 0 10.03-4.968l-26.078-30.33Zm11.422 15.768v-20h-.866a17598.02 17598.02 0 0 1-16.322-.01l-2.357-.007c-1.071-.005-.613-.013.002.022L3.37 49.274c.97.054 7.17.051 11.606.054l6.997.003h3.164v-20ZM7.877 9.595c.432.074 2.526.427 4.938 1.653a17.618 17.618 0 0 1 6.401 5.514L-13.463 39.83c4.995 7.076 11.877 8.725 14.551 9.186l6.789-39.42Zm11.344 7.173c2.348 3.33 2.908 6.51 3.08 7.955a16.586 16.586 0 0 1 .049 3.439 18.522 18.522 0 0 1-.027.29l-.005.047-.002.024-.002.012c0 .005 0 .011-19.89-2.087-19.89-2.098-19.89-2.092-19.891-2.086l-.002.012a19.73 19.73 0 0 0-.036.385 21.677 21.677 0 0 0-.078 1.584c-.011.81.016 1.863.16 3.08.257 2.169 1.043 6.27 3.956 10.4L19.22 16.768Zm3.203 9.68V8.315h-40v18.133h40Zm0-18.133c0-6.89-3.412-14.004-10.265-17.999a20.69 20.69 0 0 0-11.136-2.8H.998c-.012.001-.024.002.751 19.987.776 19.985.763 19.985.751 19.985l-.024.001-.05.002a28.574 28.574 0 0 1-.3.008 19.374 19.374 0 0 1-10.112-2.626 19.387 19.387 0 0 1-7.239-7.434 19.028 19.028 0 0 1-2.351-9.124h40ZM1.748-12.497h-.307v40h.307v-40Zm-.307 0c-4.037 0-8.32 1.191-12.061 3.905a20.562 20.562 0 0 0-6.553 7.946 21.166 21.166 0 0 0-1.972 8.636l39.996.578c-.011.758-.045 3.996-1.784 7.718a19.438 19.438 0 0 1-6.2 7.5 19.477 19.477 0 0 1-11.426 3.717v-40ZM-19.146 8.279V26.816h40V8.279h-40Zm0 18.537c0 7.063 2.92 13.705 8.522 18.514l26.052-30.354c1.294 1.111 2.854 2.871 3.993 5.373a15.716 15.716 0 0 1 1.433 6.467h-40Zm8.523 18.514A23.586 23.586 0 0 0-.143 50.5a23.616 23.616 0 0 0 5.087.51 21.335 21.335 0 0 0 .991-.034l.063-.004.03-.002h.016c.008-.001.016-.002-1.267-19.96C3.494 11.05 3.5 11.05 3.509 11.05l.015-.002.03-.001a429.613 429.613 0 0 1 .185-.01 19.735 19.735 0 0 1 .755-.025c.342-.004.702.002 1.077.021.737.037 1.607.13 2.571.334 1.88.398 4.642 1.34 7.285 3.609l-26.05 30.354Zm15.4-14.32v20H7.872l6.875-.001c5.007 0 10.202 0 10.668-.002l-.113-40H24.22l-2.443.001-7.033.001H4.778v20Zm20.638 19.997c7.104-.02 13.8-3.336 18.348-8.902L12.786 16.799c2.687-3.29 7.129-5.777 12.516-5.792l.113 40Zm18.354-8.91c3.245-3.977 4.434-8.096 4.913-10.529a24.742 24.742 0 0 0 .464-4.58 21.801 21.801 0 0 0-.015-.934c0-.006 0-.013-19.985.762-19.985.774-19.986.767-19.986.761v-.013l-.001-.025a18.379 18.379 0 0 1 .014-1.619c.033-.576.105-1.28.262-2.075.275-1.4 1.028-4.201 3.344-7.039l30.99 25.291Z" fill="#fff" mask="url(#a)"/></g></symbol><symbol id="e-mail-icon"><g fill="none"><path stroke="#222" stroke-width="1.3" d="M.65 6v8M17.65 6v8M0 13.35h18M0 1.35h18M17.35 3.182 9 9.677.65 3.182V1.65h16.7v1.532Z"/></g></symbol><symbol id="functionality-icon"><g fill="none"><path fill-rule="evenodd" clip-rule="evenodd" d="M19.117.076a1 1 0 0 1 1.09.217c.909.908 2.097 2.878 3.059 5.918C24.237 9.28 25 13.508 25 19a1 1 0 0 1-1 1h-3.5v9a1 1 0 1 1-2 0V1a1 1 0 0 1 .617-.924ZM20.5 18h2.491c-.086-4.816-.786-8.512-1.632-11.186-.278-.88-.57-1.643-.859-2.295V18ZM6.5 0a1 1 0 0 1 1 1v28a1 1 0 1 1-2 0V1a1 1 0 0 1 1-1Z" fill="#fff"/><path fill-rule="evenodd" clip-rule="evenodd" d="M2 0a1 1 0 0 1 1 1v5.5c0 .557.192 1.315.7 1.917.48.566 1.314 1.083 2.8 1.083a1 1 0 1 1 0 2c-2.015 0-3.43-.733-4.326-1.792A5.068 5.068 0 0 1 1 6.5V1a1 1 0 0 1 1-1Z" fill="#fff"/><path fill-rule="evenodd" clip-rule="evenodd" d="M11 0a1 1 0 0 0-1 1v5.5a3.07 3.07 0 0 1-.7 1.917C8.82 8.983 7.984 9.5 6.5 9.5a1 1 0 0 0 0 2c2.014 0 3.43-.733 4.326-1.792A5.068 5.068 0 0 0 12 6.5V1a1 1 0 0 0-1-1Z" fill="#fff"/></g></symbol><symbol id="gift-icon"><g fill="none"><g filter="url(#a)" fill="#fff"><path d="M64.016 34.713H14.03c-1.754 0-3.182-1.418-3.182-3.16v-9.469c0-1.742 1.428-3.16 3.182-3.16h49.984c1.754 0 3.18 1.418 3.18 3.16v9.469c0 1.742-1.426 3.16-3.18 3.16ZM14.03 21.346a.751.751 0 0 0-.744.738v9.469c0 .407.334.738.744.738h49.984c.41 0 .743-.331.743-.738v-9.469a.75.75 0 0 0-.743-.738H14.03Z"/><path d="M57.045 67.149H20.999c-3.377 0-6.125-2.73-6.125-6.086V33.502c0-.669.546-1.212 1.219-1.212s1.219.543 1.219 1.212v27.56c0 2.021 1.654 3.665 3.687 3.665h36.046c2.032 0 3.686-1.644 3.686-3.664V33.502c0-.669.546-1.212 1.219-1.212.672 0 1.218.543 1.218 1.212v27.56c0 3.357-2.747 6.087-6.123 6.087Z"/><path d="M39.023 67.149a1.215 1.215 0 0 1-1.22-1.211V33.502c0-.669.547-1.212 1.22-1.212.672 0 1.218.543 1.218 1.212v32.435c0 .67-.545 1.212-1.218 1.212ZM23.811 21.341c-3.814-2.054-5.238-6.808-3.173-10.6 2.064-3.789 6.848-5.204 10.665-3.154 5.814 3.13 8.954 11.86 9.084 12.23l-2.3.804c-.029-.083-2.961-8.222-7.944-10.904-2.635-1.415-5.937-.438-7.36 2.177-1.426 2.618-.444 5.9 2.19 7.318l-1.162 2.13Z"/><path d="m54.231 21.341-1.16-2.13a5.376 5.376 0 0 0 2.622-3.207 5.327 5.327 0 0 0-.431-4.109 5.382 5.382 0 0 0-3.226-2.604 5.426 5.426 0 0 0-4.134.426c-4.982 2.682-7.915 10.82-7.944 10.903l-2.3-.803c.131-.37 3.27-9.101 9.084-12.23a7.859 7.859 0 0 1 5.99-.617 7.8 7.8 0 0 1 4.674 3.771 7.72 7.72 0 0 1 .623 5.953 7.788 7.788 0 0 1-3.798 4.647ZM61.95 50.931H16.093a1.215 1.215 0 0 1-1.219-1.21c0-.67.546-1.212 1.219-1.212H61.95c.672 0 1.218.543 1.218 1.211 0 .669-.545 1.211-1.218 1.211Z"/></g></g></symbol><symbol id="icon-cat-energy"><g fill="none"><g clip-path="url(#a)" fill="#111"><path d="M1.603 22.051A9.498 9.498 0 0 1 0 16.308V7.795a9.63 9.63 0 0 1 1.502-5.846C2.604.615 4.307 0 6.811 0s4.106.615 5.108 1.744a7.487 7.487 0 0 1 1.502 5.025v2.052H8.513V6.46a5.157 5.157 0 0 0-.3-2.05 1.463 1.463 0 0 0-.579-.63 1.415 1.415 0 0 0-.823-.191c-.701 0-1.202.205-1.403.718a6.774 6.774 0 0 0-.3 2.256v10.974a4.334 4.334 0 0 0 .4 2.154c.2.513.702.718 1.403.718.7 0 1.102-.205 1.302-.718.228-.693.33-1.423.3-2.154v-2.461h4.908v2.051a7.98 7.98 0 0 1-1.502 5.128c-1.002 1.231-2.705 1.847-5.108 1.847-2.404-.103-4.207-.718-5.208-2.052ZM19.33.308h5.71l4.206 23.384h-4.607l-.802-4.923h-3.305l-.801 4.923h-4.708L19.33.308Zm4.107 15.384-1.202-9.128-1.202 9.128h2.404ZM32.751 4.205h-3.405V.308h11.918v3.795H37.86v19.59h-5.108V4.204ZM50.379.308h8.814v2.461h-5.71v7.693h4.608v2.359h-4.607v8.615h5.709v2.359h-8.914V.308h.1ZM61.797.308H64l6.51 15.487V.308h2.604v23.384h-2.003l-6.61-16v16h-2.704V.308ZM76.119.308h8.814v2.461h-5.71v7.693h4.608v2.359h-4.607v8.615h5.709v2.359h-8.814V.308ZM87.537.308h4.607a7.873 7.873 0 0 1 5.108 1.436c1.102.923 1.602 2.564 1.602 4.718 0 2.974-.901 4.82-2.804 5.436l3.205 11.692H96.15l-3.005-10.975h-2.503V23.59h-3.205V.308h.1Zm4.407 10.051a4.302 4.302 0 0 0 2.904-.82c.601-.513.902-1.539.902-3.077a6.772 6.772 0 0 0-.3-2.257 2.583 2.583 0 0 0-1.103-1.23 4.473 4.473 0 0 0-2.203-.41h-1.402v7.691h1.202v.103ZM102.861 21.949a10.566 10.566 0 0 1-1.402-5.95V8.206c-.025-1.486.143-2.97.5-4.41a5.204 5.204 0 0 1 1.903-2.667 6.421 6.421 0 0 1 3.706-.923c2.103 0 3.606.513 4.507 1.641a7.982 7.982 0 0 1 1.402 5.128v.82h-3.004v-.717a15.503 15.503 0 0 0-.201-2.564 2.056 2.056 0 0 0-.801-1.334 3.04 3.04 0 0 0-1.903-.512 2.955 2.955 0 0 0-2.003.615 2.349 2.349 0 0 0-.801 1.641 19.734 19.734 0 0 0-.201 2.77v8.717a9.527 9.527 0 0 0 .601 3.898c.401.82 1.202 1.128 2.404 1.128.475.06.956-.024 1.384-.243a2.45 2.45 0 0 0 1.02-.988 9.635 9.635 0 0 0 .701-4.102V14.46h-2.905v-2.359h5.809v11.59h-2.003l-.3-2.666a4.18 4.18 0 0 1-1.554 2.21 4.016 4.016 0 0 1-2.553.764 4.907 4.907 0 0 1-2.406-.47 5.037 5.037 0 0 1-1.9-1.581ZM119.987 15.487 115.08.41h3.004l3.506 11.282L124.995.41H128l-4.908 15.077v8.205h-3.004v-8.205h-.101Z"/></g></g></symbol><symbol id="icon-telegram"><g fill="none"><path fill-rule="evenodd" clip-rule="evenodd" d="M19.46.153c.18.15.265.382.227.611l-2.626 15.757a.657.657 0 0 1-1.012.439l-7.878-5.253a.656.656 0 0 1-.149-.956l2.611-3.263-4.36 2.906a.657.657 0 0 1-.658.041L.363 7.81a.657.657 0 0 1 .073-1.205L18.819.038a.657.657 0 0 1 .642.115ZM2.327 7.323 5.862 9.09l7.561-5.04a.656.656 0 0 1 .877.956l-4.805 6.006 6.438 4.292L18.208 1.65 2.326 7.323Z" fill="#666"/></g></symbol><symbol id="icon-vk"><g fill="none"><path d="M0 2.339C0 1.484.515 1.023 1.545.956l3.97.025a.52.52 0 0 1 .533.377c.409 1.257.866 2.343 1.372 3.257.506.913 1.168 1.965 1.985 3.156.071.15.187.226.346.226.125 0 .222-.059.293-.176l.08-.277.027-4.35c0-.302-.075-.503-.226-.604-.151-.1-.431-.176-.84-.226-.32-.05-.48-.235-.48-.553 0-.067.01-.118.027-.151C9.005.57 10.072.025 11.83.025L13.322 0c.675 0 1.234.16 1.678.478.444.318.666.821.666 1.509v5.708c.125.084.24.126.347.126.266 0 .497-.15.692-.453 1.954-2.582 3.011-4.308 3.17-5.18 0-.017.019-.059.054-.126.125-.251.329-.47.613-.654.284-.184.533-.31.746-.377a.554.554 0 0 1 .24-.05h4.13l.266.025c.355 0 .63.16.826.478.07.1.12.21.146.327.027.117.045.234.054.352.009.117.013.184.013.2v.177c-.124.687-.44 1.42-.946 2.2-.506.78-1.15 1.622-1.931 2.528-.782.905-1.27 1.5-1.466 1.785-.16.201-.24.386-.24.554 0 .134.071.285.213.452l3.89 4.627c.213.269.32.562.32.88 0 .386-.16.705-.48.956-.32.252-.701.394-1.145.428l-.453.025h-4.05a.855.855 0 0 0-.106.012.862.862 0 0 1-.107.013c-.39 0-.755-.16-1.092-.478-.125-.134-.96-1.123-2.505-2.967a1.387 1.387 0 0 0-.373-.327c-.07.268-.164.654-.28 1.157-.115.503-.2.863-.253 1.081l-.08.428c-.177.586-.55.938-1.119 1.056l-.373.025h-2.61c-1.475 0-2.945-.637-4.41-1.911-1.466-1.275-2.784-2.922-3.957-4.942C2.238 8.102 1.146 5.75.133 3.068A1.916 1.916 0 0 1 0 2.338Zm16.013 6.513c-.373 0-.71-.096-1.013-.29-.302-.192-.453-.456-.453-.791V1.987c0-.336-.089-.575-.266-.717-.178-.143-.489-.214-.933-.214l-1.518.05c-.764 0-1.341.126-1.732.378.781.352 1.172.922 1.172 1.71V7.62a1.5 1.5 0 0 1-.533 1.043 1.59 1.59 0 0 1-1.066.415c-.532 0-.94-.243-1.225-.729C7.06 6.371 6.03 4.493 5.356 2.716l-.24-.654-3.544-.025c-.231 0-.36.013-.386.038-.027.025-.04.096-.04.213 0 .151.017.31.053.478l.56 1.409c1.491 3.638 3.112 6.505 4.862 8.6 1.75 2.096 3.468 3.144 5.155 3.144h2.665c.106 0 .186-.03.24-.088.053-.06.097-.172.133-.34l.053-.251.506-2.213c.142-.302.267-.503.373-.604a.975.975 0 0 1 .693-.277c.426 0 .861.243 1.305.73l2.265 2.716c.142.218.293.327.453.327h4.396c.533 0 .8-.126.8-.378a.466.466 0 0 0-.08-.251l-3.864-4.552c-.302-.352-.453-.73-.453-1.131 0-.403.142-.788.427-1.157.23-.336.679-.893 1.345-1.673a37.63 37.63 0 0 0 1.745-2.188c.498-.679.826-1.295.986-1.848l.08-.327a.371.371 0 0 1-.027-.163.574.574 0 0 0-.026-.189h-4.183c-.267.1-.48.252-.64.453l-.16.478c-.444 1.156-1.607 2.942-3.49 5.356a1.892 1.892 0 0 1-1.305.503Z" fill="#666"/></g></symbol><symbol id="icon-youtube"><g fill="none"><path d="m15.85 8.793-5.236-3.491a.655.655 0 0 0-1.014.545v6.982a.655.655 0 0 0 1.014.546l5.237-3.491a.654.654 0 0 0 0-1.091Zm-4.94 2.814V7.07l3.403 2.27-3.404 2.268Zm12.48-8.563a2.4 2.4 0 0 0-1.452-1.637C18.218-.022 12.251 0 12 0c-.25 0-6.218-.022-9.938 1.407A2.4 2.4 0 0 0 .61 3.044C.327 4.113 0 6.076 0 9.338c0 3.262.327 5.226.61 6.295a2.4 2.4 0 0 0 1.452 1.636c3.72 1.43 9.687 1.407 9.938 1.407h.076c.753 0 6.317-.043 9.862-1.407a2.4 2.4 0 0 0 1.451-1.636c.284-1.07.611-3.033.611-6.295s-.327-5.225-.61-6.294Zm-1.266 12.261a1.09 1.09 0 0 1-.655.742c-3.49 1.342-9.404 1.32-9.469 1.32-.066 0-5.978.022-9.47-1.32a1.09 1.09 0 0 1-.654-.742c-.261-1.003-.567-2.847-.567-5.967 0-3.12.306-4.963.567-5.967a1.09 1.09 0 0 1 .655-.742C6.02 1.287 11.934 1.31 12 1.31c.066 0 5.978-.022 9.47 1.32a1.092 1.092 0 0 1 .654.742c.262 1.004.567 2.847.567 5.967 0 3.12-.305 4.964-.567 5.968Z" fill="#666"/></g></symbol><symbol id="logo-HTMLAcademy"><g fill="none"><path d="M13.643.016 13.5 0 0 1.407v24.606L13.5 34 27 26.013V1.407L13.643.016Zm11.591 25L13.5 31.956 1.766 25.015V14.93l11.685 6.916.02 1.253-8.017-4.743-.011 1.225 8.046 4.809.02 1.286-8.045-4.758-.01 1.226L13.5 26.95l8.124-4.833V16.91l3.62-2.15-.01 10.256Zm0-11.564-3.22 1.88-1.482.875-7.065-4.187-.011 1.225 6.04 3.573-.053.031-.13.076-.86.492-4.986-2.948-.011 1.225 3.936 2.328-.933.61-.021.012-2.971-1.742-.011 1.225 1.947 1.135-1.988 1.186-11.618-6.872 11.638-6.958 11.8 6.834Zm0-1.225L13.44 5.31 1.766 12.22V2.99L13.5 1.764 25.234 2.99v9.237Z" fill="#666"/></g></symbol><symbol id="nav__toggle-icon"><g fill="none"><path stroke="#000" stroke-width="1.5" d="M0 1.25h24M0 9.25h24M0 17.25h24"/></g></symbol><symbol id="phone-icon"><g fill="none"><g clip-path="url(#a)" fill="#000"><path d="M17.9 9.753H9.4v1.204h8.5l-2.1 2.107.9.903 3.1-3.11a.754.754 0 0 0 0-.904l-3.1-3.11-.9.903 2.1 2.007ZM8.1 19.787v-6.221a.653.653 0 0 0-.6-.602H3.1a1.226 1.226 0 0 0 1.2 1.204h2.5v5.017H3.1a1.784 1.784 0 0 1-1.728-1.02 1.801 1.801 0 0 1-.172-.686V3.431a1.78 1.78 0 0 1 .483-1.25A1.767 1.767 0 0 1 2.9 1.624h3.9v5.017H4.4a1.218 1.218 0 0 0-1.2 1.204h4.4a.649.649 0 0 0 .6-.602V.923A.863.863 0 0 0 7.5.32H3.1a2.99 2.99 0 0 0-2.151.81A3.01 3.01 0 0 0 0 3.23v13.948a2.91 2.91 0 0 0 .772 2.192 2.89 2.89 0 0 0 2.128.919h4.6a.499.499 0 0 0 .6-.502Z"/></g></g></symbol><symbol id="right-arrow-icon-hover"><g fill="none"><path stroke="#000" stroke-width="2" d="M0 6h26"/><path d="m32 6-6.75 5.196V.804L32 6Z" fill="#000"/></g></symbol><symbol id="right-arrow-icon"><g fill="none"><path stroke="#000" stroke-width="2" d="M0 6h18"/><path d="m24 6-6.75 5.196V.804L24 6Z" fill="#000"/></g></symbol><symbol id="show-more-icon"><g fill="none"><path stroke="#D3D3D3" stroke-width="2" d="M15 0v30M30 15H0"/></g></symbol><symbol id="speed-icon"><g fill="none"><ellipse cx="17.704" cy="9.33" rx="1.087" ry="1.085" fill="#fff"/><ellipse cx="6.831" cy="9.33" rx="1.087" ry="1.085" fill="#fff"/><ellipse cx="6.831" cy="22.351" rx="1.087" ry="1.085" fill="#fff"/><ellipse cx="12.268" cy="24.521" rx="1.087" ry="1.085" fill="#fff"/><ellipse cx="3.569" cy="15.775" rx="1.087" ry="1.085" fill="#fff"/><ellipse cx="20.966" cy="15.775" rx="1.087" ry="1.085" fill="#fff"/><ellipse cx="17.704" cy="22.351" rx="1.087" ry="1.085" fill="#fff"/><mask id="a" fill="#fff"><path fill-rule="evenodd" clip-rule="evenodd" d="M17.422 27.058a1.058 1.058 0 0 1 1.216.196l1.826 1.875a.682.682 0 0 0 .977-.95l-1.357-1.394c-.426-.438-.361-1.15.098-1.552 2.642-2.314 4.318-5.764 4.318-9.619C24.5 8.648 19.023 3 12.268 3 5.512 3 .036 8.648.036 15.614c0 3.815 1.641 7.234 4.236 9.547.452.403.513 1.11.09 1.544l-1.434 1.473a.682.682 0 1 0 .976.951l1.88-1.93a1.058 1.058 0 0 1 1.226-.191 11.878 11.878 0 0 0 5.258 1.221c1.841 0 3.587-.42 5.154-1.17Zm-5.154-.23c6.005 0 10.873-5.02 10.873-11.213S18.273 4.402 12.268 4.402c-6.005 0-10.873 5.02-10.873 11.212 0 6.193 4.868 11.213 10.873 11.213Zm-.76-11.53V7.94a.781.781 0 1 1 1.563 0v8.183c0 .443-.36.803-.803.803a.76.76 0 0 1-.76-.76V15.298Z"/></mask><path fill-rule="evenodd" clip-rule="evenodd" d="M17.422 27.058a1.058 1.058 0 0 1 1.216.196l1.826 1.875a.682.682 0 0 0 .977-.95l-1.357-1.394c-.426-.438-.361-1.15.098-1.552 2.642-2.314 4.318-5.764 4.318-9.619C24.5 8.648 19.023 3 12.268 3 5.512 3 .036 8.648.036 15.614c0 3.815 1.641 7.234 4.236 9.547.452.403.513 1.11.09 1.544l-1.434 1.473a.682.682 0 1 0 .976.951l1.88-1.93a1.058 1.058 0 0 1 1.226-.191 11.878 11.878 0 0 0 5.258 1.221c1.841 0 3.587-.42 5.154-1.17Zm-5.154-.23c6.005 0 10.873-5.02 10.873-11.213S18.273 4.402 12.268 4.402c-6.005 0-10.873 5.02-10.873 11.212 0 6.193 4.868 11.213 10.873 11.213Zm-.76-11.53V7.94a.781.781 0 1 1 1.563 0v8.183c0 .443-.36.803-.803.803a.76.76 0 0 1-.76-.76V15.298Z" fill="#fff"/><path d="m5.784 27.199 2.866 2.79-2.866-2.79Zm1.226-.191 1.765-3.59-1.765 3.59Zm-3.106 2.121L1.04 26.34l2.865 2.79Zm-.976-.95 2.865 2.79-2.865-2.79Zm17.156-1.394-2.865 2.79 2.865-2.79Zm.098-1.552-2.635-3.009 2.635 3.01Zm-15.91-.072L1.61 28.146l2.662-2.985Zm.09 1.544-2.866-2.79 2.866 2.79Zm17.079 1.473 2.866-2.79-2.866 2.79Zm-.977.951 2.866-2.79-2.866 2.79Zm-1.825-1.875-2.866 2.79 2.866-2.79Zm-1.217-.196-1.73-3.606 1.73 3.606Zm-1.65 2.987L17.6 31.92l5.731-5.582-1.826-1.874-5.731 5.58Zm8.535-4.658-1.357-1.393-5.731 5.582 1.356 1.393 5.732-5.582Zm-1.49 2.855c3.49-3.056 5.683-7.595 5.683-12.628h-8c0 2.677-1.16 5.04-2.953 6.61l5.27 6.018ZM28.5 15.614C28.5 6.556 21.348-1 12.268-1v8c4.431 0 8.232 3.74 8.232 8.614h8ZM12.268-1C3.188-1-3.964 6.556-3.964 15.614h8C4.036 10.74 7.836 7 12.268 7v-8ZM-3.964 15.614c0 4.98 2.147 9.477 5.574 12.532l5.324-5.97c-1.762-1.572-2.898-3.913-2.898-6.561h-8Zm5.46 8.3L.062 25.388l5.731 5.582 1.434-1.473-5.73-5.581ZM6.77 31.92l1.88-1.93-5.732-5.582-1.88 1.93L6.77 31.92Zm-1.525-1.323a15.878 15.878 0 0 0 7.023 1.632v-8a7.879 7.879 0 0 1-3.493-.811l-3.53 7.18Zm7.023 1.632c2.456 0 4.792-.56 6.884-1.564l-3.46-7.213c-1.041.499-2.198.777-3.424.777v8Zm0-1.402c8.33 0 14.873-6.928 14.873-15.213h-8c0 4.101-3.192 7.213-6.873 7.213v8ZM27.14 15.614C27.14 7.33 20.597.402 12.268.402v8c3.68 0 6.873 3.112 6.873 7.213h8ZM12.268.402C3.938.402-2.605 7.33-2.605 15.615h8c0-4.101 3.192-7.213 6.873-7.213v-8ZM-2.605 15.615c0 8.284 6.544 15.212 14.873 15.212v-8c-3.68 0-6.873-3.112-6.873-7.213h-8Zm11.676-.317v.543h8v-.543h-8Zm0 .543v.282h8v-.282h-8Zm6.437.325v-.325h-8v.325h8Zm0-.325v-.543h-8v.543h8Zm0-.543V11.5h-8v3.798h8Zm0-3.798V7.94h-8v3.56h8ZM9.071 7.94v3.56h8V7.94h-8Zm0 3.56v3.798h8V11.5h-8Zm3.219-8.34a4.781 4.781 0 0 0-4.782 4.78h8a3.219 3.219 0 0 1-3.218 3.22v-8ZM9.07 16.123a3.197 3.197 0 0 1 3.198-3.197v8a4.803 4.803 0 0 0 4.803-4.803h-8ZM8.65 29.99a2.943 2.943 0 0 1-3.405.607l3.53-7.179c-1.826-.898-4.227-.683-5.857.99L8.65 29.99ZM.062 31.92a4.682 4.682 0 0 0 6.708 0l-5.731-5.582a3.318 3.318 0 0 1 4.754 0L.062 31.92Zm0-6.533a4.682 4.682 0 0 0 0 6.533l5.731-5.582a3.318 3.318 0 0 1 0 4.63l-5.731-5.58Zm22.888-1.393c1.343 1.38.944 3.305-.133 4.248l-5.27-6.018c-1.995 1.748-2.523 5.098-.328 7.352l5.731-5.582ZM12.29 11.16a3.219 3.219 0 0 1-3.22-3.22h8c0-2.64-2.14-4.78-4.78-4.78v8ZM1.61 28.146c-1.064-.948-1.447-2.862-.114-4.231l5.731 5.581c2.18-2.238 1.675-5.565-.293-7.32l-5.324 5.97Zm22.697 3.774a4.682 4.682 0 0 0 0-6.533l-5.732 5.582a3.318 3.318 0 0 1 0-4.63l5.732 5.58Zm-6.708 0a4.682 4.682 0 0 0 6.708 0l-5.732-5.582a3.318 3.318 0 0 1 4.755 0L17.6 31.92Zm-5.331-18.994a3.24 3.24 0 0 1 3.24 3.24h-8a4.76 4.76 0 0 0 4.76 4.76v-8Zm9.236 11.538c-1.616-1.66-3.992-1.886-5.813-1.012l3.46 7.212a2.943 2.943 0 0 1-3.378-.62l5.731-5.58Z" fill="#fff" mask="url(#a)"/><path fill="#fff" d="M11.5 4V0H13v4z"/><rect x="4.5" width="15.5" height="1.5" rx=".75" fill="#fff"/></g></symbol><symbol id="weight-gain-cat-desktop"><g fill="none"><circle cx="69" cy="50" r="50" fill="#68B738"/><g clip-path="url(#a)"><path d="M123.1 25.8a15.195 15.195 0 0 1 4.5-4.6c1-.7 1.6-.7 2.2.6.8 1.9 1.5 3.9.9 6a2.288 2.288 0 0 0 .4 2.1c.6.8 1.1 1.6 1.6 2.3a6.276 6.276 0 0 1 .9 6.2 5.428 5.428 0 0 0-.2 3.1c.2.99.2 2.01 0 3a3.751 3.751 0 0 1-2.7 3.2 5.21 5.21 0 0 0-3.2 2 1.053 1.053 0 0 1-.9.5c-1.2.2-4.2-2.5-4.2-3.7v-.6c.1-3.6-.1-3.9-3.4-5.4a4.385 4.385 0 0 1-1.8-1.2c-.6-.8-1.4-.7-2.3-.4-.9.3-1.4.9-1.3 1.9a44.19 44.19 0 0 1 .3 7.3c.007.278.075.551.2.8 3.1 4.5 4.3 9.8 5.8 14.9 1.2 3.9 3.4 6 7.4 6.3.64.051 1.275.151 1.9.3a4.158 4.158 0 0 1 3.4 3.2c.7 2.1.3 2.6-1.8 2.6h-6.5a3.238 3.238 0 0 1-2.3-.8 11.713 11.713 0 0 0-3.4-2 7.258 7.258 0 0 1-3.4-2.6 28.586 28.586 0 0 0-4-4.5c-2.8-2.9-5.8-5.7-8.4-8.7a11.381 11.381 0 0 1-3.2-7.6c0-.9-.2-1.3-1.2-.9-.3.19-.646.294-1 .3-2.8 0-4.2 1.7-5.2 4.2-.9 2.1-2.1 4.1-3.2 6.2a10.39 10.39 0 0 0-1 4.2c0 2.4.6 3.2 2.8 4 1.4.5 2.7 1 3.4 2.4.8 1.6.6 2-1.1 2.1h-6.8a1.88 1.88 0 0 1-1.9-1.1l-1.8-3a6.049 6.049 0 0 1-.7-5.4 11.86 11.86 0 0 0 .1-5.3 8.42 8.42 0 0 1 1.7-7c.6-.7.6-1-.4-1.2a50.059 50.059 0 0 1-11.8-4.1.1.1 0 0 1-.1-.1c-3.2-1.2-3.8-1-4.7 2.3-.8 2.8-1.6 5.6-2.2 8.5-.7 3.2.1 6.2 1.1 9.2.4 1.2 1.6 1.1 2.5 1.4 2 .6 3.7 1.4 4.5 3.5.7 1.6.6 1.8-1.1 1.8-1.7 0-3.4-.1-5.2 0a6.64 6.64 0 0 1-4.2-1.4c-4.8-3.2-6.2-8.1-6.6-13.4-.2-3.3-2-5.9-4.1-8.4-.4-.5-.8-.7-1.4-.3a44.312 44.312 0 0 1-6.7 3 26.71 26.71 0 0 0-12.2 8.8 10.63 10.63 0 0 0-2.2 5.1c-.3 1.8.2 2.6 2 3.1s2.7 1.5 2.9 3.4c.1.8-.2 1.2-1 1.2h-8.1a1.65 1.65 0 0 1-1.3-.8 8.56 8.56 0 0 1-1.9-5.5c-.053-3.455.249-6.906.9-10.3a6.3 6.3 0 0 1 3.4-4.8c5.9-2.8 9-8.1 11.8-13.6.6-1.1.1-1.3-.9-1.2a16.47 16.47 0 0 0-7.7 3.2 70.614 70.614 0 0 0-8.3 7.1 16.67 16.67 0 0 1-10.3 4.9C3.1 52.5-.3 48.4 0 41.8a9.69 9.69 0 0 1 2.4-6.1 4.25 4.25 0 0 1 4.5-1.5c1.5.4 1.9 1.2 1.3 2.7-.3.6-.7 1.1-1 1.7a7.5 7.5 0 0 0-1 2c-1.1 3 .4 5.1 3.5 5.4 3.3.3 6-1.1 8.5-3.1a44.944 44.944 0 0 0 8-8.3 20.791 20.791 0 0 1 14.4-8.1c2.3-.3 4.3-1.3 6.5-1.9a41.511 41.511 0 0 1 12.7-1.8 13 13 0 0 0 5.8-1.1c4.9-2 10-2 15.1-1 4 .8 8 1.8 11.9 2.8a16.58 16.58 0 0 0 7-.2 67.794 67.794 0 0 1 13.4-2c2.962-.144 5.915.44 8.6 1.7 2 .9 2 .9 1.5 2.8Z" fill="#000"/></g></g></symbol><symbol id="weight-gain-cat-tablet"><g fill="none"><circle cx="136" cy="100" r="100" fill="#68B738"/><g clip-path="url(#a)"><path d="M246.2 55.6a30.402 30.402 0 0 1 9-9.2c2-1.4 3.2-1.4 4.4 1.2 1.6 3.8 3 7.8 1.8 12a4.577 4.577 0 0 0 .8 4.2c1.2 1.6 2.2 3.2 3.2 4.6a12.541 12.541 0 0 1 1.8 12.4 10.865 10.865 0 0 0-.4 6.2c.4 1.98.4 4.02 0 6a7.502 7.502 0 0 1-5.4 6.4 10.423 10.423 0 0 0-6.4 4 2.104 2.104 0 0 1-1.8 1c-2.4.4-8.4-5-8.4-7.4v-1.2c.2-7.2-.2-7.8-6.8-10.8a8.783 8.783 0 0 1-3.6-2.4c-1.2-1.6-2.8-1.4-4.6-.8-1.8.6-2.8 1.8-2.6 3.8.603 4.842.804 9.725.6 14.6.013.556.15 1.103.4 1.6 6.2 9 8.6 19.6 11.6 29.8 2.4 7.8 6.8 12 14.8 12.6 1.28.102 2.551.303 3.8.6a8.322 8.322 0 0 1 6.8 6.4c1.4 4.2.6 5.2-3.6 5.2h-13a6.481 6.481 0 0 1-4.6-1.6 23.413 23.413 0 0 0-6.8-4 14.525 14.525 0 0 1-6.8-5.2 57.213 57.213 0 0 0-8-9c-5.6-5.8-11.6-11.4-16.8-17.4a22.758 22.758 0 0 1-6.4-15.2c0-1.8-.4-2.6-2.4-1.8a3.865 3.865 0 0 1-2 .6c-5.6 0-8.4 3.4-10.4 8.4-1.8 4.2-4.2 8.2-6.4 12.4a20.786 20.786 0 0 0-2 8.4c0 4.8 1.2 6.4 5.6 8 2.8 1 5.4 2 6.8 4.8 1.6 3.2 1.2 4-2.2 4.2h-13.6a3.763 3.763 0 0 1-3.8-2.2l-3.6-6a12.103 12.103 0 0 1-1.4-10.8c.866-3.473.934-7.097.2-10.6a16.841 16.841 0 0 1 3.4-14c1.2-1.4 1.2-2-.8-2.4a100.105 100.105 0 0 1-23.6-8.2.198.198 0 0 1-.141-.059.198.198 0 0 1-.059-.141c-6.4-2.4-7.6-2-9.4 4.6-1.6 5.6-3.2 11.2-4.4 17-1.4 6.4.2 12.4 2.2 18.4.8 2.4 3.2 2.2 5 2.8 4 1.2 7.4 2.8 9 7 1.4 3.2 1.2 3.6-2.2 3.6-3.4 0-6.8-.2-10.4 0a13.278 13.278 0 0 1-8.4-2.8c-9.6-6.4-12.4-16.2-13.2-26.8-.4-6.6-4-11.8-8.2-16.8-.8-1-1.6-1.4-2.8-.6a88.649 88.649 0 0 1-13.4 6 53.421 53.421 0 0 0-24.4 17.6 21.26 21.26 0 0 0-4.4 10.2c-.6 3.6.4 5.2 4 6.2s5.4 3 5.8 6.8c.2 1.6-.4 2.4-2 2.4H49.4a3.308 3.308 0 0 1-2.6-1.6 17.121 17.121 0 0 1-3.8-11c-.105-6.91.498-13.813 1.8-20.6a12.594 12.594 0 0 1 6.8-9.6c11.8-5.6 18-16.2 23.6-27.2 1.2-2.2.2-2.6-1.8-2.4A32.94 32.94 0 0 0 58 84.2a141.246 141.246 0 0 0-16.6 14.2 33.342 33.342 0 0 1-20.6 9.8C6.2 109-.6 100.8 0 87.6a19.38 19.38 0 0 1 4.8-12.2 8.5 8.5 0 0 1 9-3c3 .8 3.8 2.4 2.6 5.4-.6 1.2-1.4 2.2-2 3.4a15.001 15.001 0 0 0-2 4c-2.2 6 .8 10.2 7 10.8 6.6.6 12-2.2 17-6.2a89.878 89.878 0 0 0 16-16.6A41.58 41.58 0 0 1 81.2 57c4.6-.6 8.6-2.6 13-3.8a83.02 83.02 0 0 1 25.4-3.6 26.001 26.001 0 0 0 11.6-2.2c9.8-4 20-4 30.2-2 8 1.6 16 3.6 23.8 5.6a33.16 33.16 0 0 0 14-.4 135.58 135.58 0 0 1 26.8-4 36.32 36.32 0 0 1 17.2 3.4c4 1.8 4 1.8 3 5.6Z" fill="#000"/></g></g></symbol><symbol id="weight-gain-cat"><g fill="none"><circle cx="34.5" cy="25" r="25" fill="#68B738"/><g clip-path="url(#a)"><path d="M61.55 13.9a7.598 7.598 0 0 1 2.25-2.3c.5-.35.8-.35 1.1.3.4.95.75 1.95.45 3a1.145 1.145 0 0 0 .2 1.05c.3.4.55.8.8 1.15a3.136 3.136 0 0 1 .45 3.1 2.715 2.715 0 0 0-.1 1.55c.1.495.1 1.005 0 1.5a1.875 1.875 0 0 1-1.35 1.6c-.64.122-1.21.478-1.6 1a.525.525 0 0 1-.45.25c-.6.1-2.1-1.25-2.1-1.85v-.3c.05-1.8-.05-1.95-1.7-2.7a2.195 2.195 0 0 1-.9-.6c-.3-.4-.7-.35-1.15-.2-.45.15-.7.45-.65.95.15 1.21.2 2.431.15 3.65a.94.94 0 0 0 .1.4c1.55 2.25 2.15 4.9 2.9 7.45.6 1.95 1.7 3 3.7 3.15.32.026.638.076.95.15a2.08 2.08 0 0 1 1.7 1.6c.35 1.05.15 1.3-.9 1.3h-3.25a1.62 1.62 0 0 1-1.15-.4 5.855 5.855 0 0 0-1.7-1 3.63 3.63 0 0 1-1.7-1.3 14.304 14.304 0 0 0-2-2.25c-1.4-1.45-2.9-2.85-4.2-4.35a5.69 5.69 0 0 1-1.6-3.8c0-.45-.1-.65-.6-.45a.965.965 0 0 1-.5.15c-1.4 0-2.1.85-2.6 2.1-.45 1.05-1.05 2.05-1.6 3.1A5.194 5.194 0 0 0 44 33c0 1.2.3 1.6 1.4 2 .7.25 1.35.5 1.7 1.2.4.8.3 1-.55 1.05h-3.4a.94.94 0 0 1-.95-.55l-.9-1.5a3.024 3.024 0 0 1-.35-2.7 5.93 5.93 0 0 0 .05-2.65 4.209 4.209 0 0 1 .85-3.5c.3-.35.3-.5-.2-.6a25.028 25.028 0 0 1-5.9-2.05.05.05 0 0 1-.05-.05c-1.6-.6-1.9-.5-2.35 1.15-.4 1.4-.8 2.8-1.1 4.25-.35 1.6.05 3.1.55 4.6.2.6.8.55 1.25.7 1 .3 1.85.7 2.25 1.75.35.8.3.9-.55.9-.85 0-1.7-.05-2.6 0a3.32 3.32 0 0 1-2.1-.7c-2.4-1.6-3.1-4.05-3.3-6.7-.1-1.65-1-2.95-2.05-4.2-.2-.25-.4-.35-.7-.15a22.16 22.16 0 0 1-3.35 1.5 13.355 13.355 0 0 0-6.1 4.4 5.315 5.315 0 0 0-1.1 2.55c-.15.9.1 1.3 1 1.55s1.35.75 1.45 1.7c.05.4-.1.6-.5.6h-4.05a.826.826 0 0 1-.65-.4 4.28 4.28 0 0 1-.95-2.75 25.292 25.292 0 0 1 .45-5.15 3.149 3.149 0 0 1 1.7-2.4c2.95-1.4 4.5-4.05 5.9-6.8.3-.55.05-.65-.45-.6a8.233 8.233 0 0 0-3.85 1.6 35.307 35.307 0 0 0-4.15 3.55 8.335 8.335 0 0 1-5.15 2.45c-3.65.2-5.35-1.85-5.2-5.15a4.845 4.845 0 0 1 1.2-3.05 2.125 2.125 0 0 1 2.25-.75c.75.2.95.6.65 1.35-.15.3-.35.55-.5.85a3.75 3.75 0 0 0-.5 1c-.55 1.5.2 2.55 1.75 2.7 1.65.15 3-.55 4.25-1.55a22.474 22.474 0 0 0 4-4.15 10.395 10.395 0 0 1 7.2-4.05c1.15-.15 2.15-.65 3.25-.95 2.057-.627 4.2-.93 6.35-.9a6.5 6.5 0 0 0 2.9-.55c2.45-1 5-1 7.55-.5 2 .4 4 .9 5.95 1.4a8.291 8.291 0 0 0 3.5-.1 33.885 33.885 0 0 1 6.7-1 9.079 9.079 0 0 1 4.3.85c1 .45 1 .45.75 1.4Z" fill="#000"/></g></g></symbol><symbol id="weight-loss-cat-desktop"><g fill="none"><circle cx="50" cy="56" r="50" fill="#68B738"/><g clip-path="url(#a)"><path d="M69.84 0h-.38A3.5 3.5 0 0 0 68 1.59 15.54 15.54 0 0 0 66.71 5a1.63 1.63 0 0 1-1.48 1.34A7.34 7.34 0 0 0 60 10.12a27.31 27.31 0 0 0-1.85 4c-1.42 3.68-2.51 7.48-3.85 11.19C53.67 27 53.64 27 51.74 27c-2.27 0-2.11-.35-2.14 2.15 0 .79.24 1.19 1.08 1.15.26 0 .65-.13.75.21.1.34-.24.49-.44.69a9 9 0 0 1-4.33 2.44c-1.9.51-3.84.91-5.69 1.53-4.75 1.59-9.14 3.81-12.56 7.57a28 28 0 0 0-4.74 7.84c-3.67 8.64-5.45 17.74-6.83 26.93-.65 4.31-1.11 8.64-1.46 13C15.2 92.65 15 94.82 15 97h33.33a2.18 2.18 0 0 0-.23-1.28 5 5 0 0 0-3.83-3.07c-.7-.16-.78-.37-.35-.92a10.348 10.348 0 0 0 1.59-3.1c1.63-4.81 2.26-9.83 3.05-14.8A30.001 30.001 0 0 1 52 63a21.6 21.6 0 0 1 5.59-6.37c.83-.63.86-.63 1 .44.1.71.12 1.44.17 2.16.3 4.724.24 9.465-.18 14.18a61.669 61.669 0 0 0-.15 11A75.16 75.16 0 0 0 60.7 97H74a5.41 5.41 0 0 0-4.24-4.44 9 9 0 0 0-3.76.2c-.6.14-.85 0-.9-.65a56.351 56.351 0 0 1 1-15.82 177.734 177.734 0 0 0 3.06-18.18 17.75 17.75 0 0 1 2.28-7c1.19-2.12 2.23-4.32 3.4-6.45a5.871 5.871 0 0 0 .42-5.19c-.27-.71-.53-1.43-.86-2.11-1-1.95-2-3.88-2.92-5.85-.49-1-.38-1.12.71-1.15 1.63 0 1.63 0 1.66-1.64v-.66c0-.69-.26-1.07-1-1h-1.52c-.69 0-.89-.29-.72-1a6.24 6.24 0 0 1 5.13-4.43 22 22 0 0 1 6.62.43 1 1 0 0 0 1.25-.64c.4-1 .84-2 1.29-3a1 1 0 0 0-.1-1.14C81.6 13.22 78.13 9.43 73.4 7a1.49 1.49 0 0 1-.88-1.12 19.599 19.599 0 0 0-1.27-4.16A3.5 3.5 0 0 0 69.84 0Z" fill="#000"/></g></g></symbol><symbol id="weight-loss-cat-tablet"><g fill="none"><circle cx="100" cy="111" r="100" fill="#68B738"/><g clip-path="url(#a)"><path d="M139.68 0h-.76A7 7 0 0 0 136 3.18a31.04 31.04 0 0 0-2.58 6.82 3.257 3.257 0 0 1-2.96 2.68A14.675 14.675 0 0 0 120 20.24a54.62 54.62 0 0 0-3.7 8c-2.84 7.36-5.02 14.96-7.7 22.38-1.26 3.38-1.32 3.38-5.12 3.38-4.54 0-4.22-.7-4.28 4.3 0 1.58.48 2.38 2.16 2.3.52 0 1.3-.26 1.5.42.2.68-.48.98-.88 1.38a18 18 0 0 1-8.66 4.88c-3.8 1.02-7.68 1.82-11.38 3.06-9.5 3.18-18.28 7.62-25.12 15.14a56 56 0 0 0-9.48 15.68c-7.34 17.28-10.9 35.48-13.66 53.86-1.3 8.62-2.22 17.28-2.92 26-.36 4.28-.76 8.62-.76 12.98h66.66c.11-.88-.05-1.773-.46-2.56a10.002 10.002 0 0 0-7.66-6.14c-1.4-.32-1.56-.74-.7-1.84a20.692 20.692 0 0 0 3.18-6.2c3.26-9.62 4.52-19.66 6.1-29.6A60.008 60.008 0 0 1 104 126a43.215 43.215 0 0 1 11.18-12.74c1.66-1.26 1.72-1.26 2 .88.2 1.42.24 2.88.34 4.32.6 9.449.48 18.93-.36 28.36a123.318 123.318 0 0 0-.3 22A150.344 150.344 0 0 0 121.4 194H148a10.817 10.817 0 0 0-8.48-8.88 18.007 18.007 0 0 0-7.52.4c-1.2.28-1.7 0-1.8-1.3a112.726 112.726 0 0 1 2-31.64 355.46 355.46 0 0 0 6.12-36.36 35.499 35.499 0 0 1 4.56-14c2.38-4.24 4.46-8.64 6.8-12.9a11.745 11.745 0 0 0 .84-10.38c-.54-1.42-1.06-2.86-1.72-4.22-2-3.9-4-7.76-5.84-11.7-.98-2-.76-2.24 1.42-2.3 3.26 0 3.26 0 3.32-3.28v-1.32c0-1.38-.52-2.14-2-2h-3.04c-1.38 0-1.78-.58-1.44-2a12.483 12.483 0 0 1 10.26-8.86 43.999 43.999 0 0 1 13.24.86 1.999 1.999 0 0 0 2.5-1.28c.8-2 1.68-4 2.58-6a1.997 1.997 0 0 0-.2-2.28c-6.4-8.12-13.34-15.7-22.8-20.56a2.977 2.977 0 0 1-1.76-2.24 39.163 39.163 0 0 0-2.54-8.32A7 7 0 0 0 139.68 0Z" fill="#000"/></g></g></symbol><symbol id="weight-loss-cat"><g fill="none"><circle cx="25" cy="28" r="25" fill="#68B738"/><g clip-path="url(#a)"><path d="M35.203 0h-.195c-.33.187-.593.474-.75.82a8.028 8.028 0 0 0-.664 1.757.84.84 0 0 1-.761.691 3.77 3.77 0 0 0-2.69 1.948c-.372.661-.69 1.35-.952 2.062-.73 1.897-1.29 3.856-1.98 5.768-.324.872-.339.872-1.316.872-1.168 0-1.085-.18-1.1 1.108 0 .407.123.613.555.593.133 0 .334-.067.385.108.052.175-.123.252-.226.355a4.626 4.626 0 0 1-2.227 1.258c-.977.263-1.975.47-2.926.789-2.443.82-4.7 1.964-6.46 3.902a14.436 14.436 0 0 0-2.437 4.041c-1.888 4.454-2.803 9.145-3.513 13.882a97.062 97.062 0 0 0-.75 6.7C7.102 47.759 7 48.877 7 50h17.141a1.126 1.126 0 0 0-.118-.66 2.577 2.577 0 0 0-1.97-1.582c-.36-.083-.401-.191-.18-.475.36-.482.637-1.022.818-1.597.838-2.48 1.162-5.067 1.568-7.63.23-1.956.83-3.85 1.77-5.582a11.126 11.126 0 0 1 2.874-3.283c.427-.325.443-.325.515.227.051.366.061.742.087 1.113a48.166 48.166 0 0 1-.092 7.31 31.866 31.866 0 0 0-.078 5.67A38.826 38.826 0 0 0 30.503 50h6.84a2.79 2.79 0 0 0-2.18-2.289 4.62 4.62 0 0 0-1.934.103c-.309.073-.438 0-.463-.335a29.113 29.113 0 0 1 .514-8.154 91.803 91.803 0 0 0 1.574-9.371 9.163 9.163 0 0 1 1.172-3.609c.612-1.092 1.147-2.226 1.749-3.324a3.031 3.031 0 0 0 .216-2.676c-.139-.366-.273-.737-.442-1.087-.515-1.005-1.029-2-1.502-3.016-.252-.515-.196-.577.365-.593.838 0 .838 0 .854-.845v-.34c0-.356-.134-.552-.515-.516h-.781c-.355 0-.458-.149-.37-.515a3.217 3.217 0 0 1 2.638-2.284 11.291 11.291 0 0 1 3.404.222.513.513 0 0 0 .643-.33c.206-.515.432-1.03.664-1.546a.517.517 0 0 0-.052-.588c-1.646-2.093-3.43-4.046-5.863-5.299a.767.767 0 0 1-.452-.577 10.123 10.123 0 0 0-.653-2.144A1.803 1.803 0 0 0 35.203 0Z" fill="#000"/></g></g></symbol></svg>